# xmcd
#
# Track frame offsets:
#	183
#	11958
#	24840
#	38595
#	51103
#	68215
#	79565
#	90025
#	101283
#	114103
#	129408
#	132033
#	144090
#
# Disc length: 2038 seconds
#
# Revision: 0
# Processed by: cddbd v1.5.1PL2 Copyright (c) Steve Scherf et al.
# Submitted via: SynApp - FreeCDDB Version: 2.1
#
DISCID=8907f40d
DTITLE=Freeway - Hard Travelin'
DYEAR=1988
DGENRE=Country
TTITLE0=Freeway - hard travelin'
TTITLE1=Freeway - San Antonio Stroll
TTITLE2=Freeway - Saw your runnin'
TTITLE3=Freeway - just in case
TTITLE4=Freeway - Jolene
TTITLE5=Freeway - Orange Blossom Special
TTITLE6=Freeway - Sweet Country Music
TTITLE7=Freeway - wasted on the way
TTITLE8=Freeway - please mr. postman
TTITLE9=Freeway - angelina
TTITLE10=Freeway - down the road
TTITLE11=Freeway - mountain pass
TTITLE12=Freeway - jody's tune
EXTD=
EXTT0=
EXTT1=
EXTT2=
EXTT3=
EXTT4=
EXTT5=
EXTT6=
EXTT7=
EXTT8=
EXTT9=
EXTT10=
EXTT11=
EXTT12=
PLAYORDER=
